<?xml version="1.0" encoding="utf-8"?>
<!-- Generator: Adobe Illustrator 22.1.0, SVG Export Plug-In . SVG Version: 6.00 Build 0)  -->
<svg version="1.1" id="Layer_1" xmlns="http://www.w3.org/2000/svg" xmlns:xlink="http://www.w3.org/1999/xlink" x="0px" y="0px"
	 viewBox="0 0 302.7 90.9" style="enable-background:new 0 0 302.7 90.9;" xml:space="preserve">
<style type="text/css">
	.st0{fill:#DB39AD;stroke:#DB39AD;stroke-miterlimit:10;}
	.st1{fill:#DB39AD;}
</style>
<g>
	<path class="st0" d="M11.2,1.7c0,0.6-0.4,1-1,1H6.8v11.2c0,0.5-0.5,1-1,1s-1-0.5-1-1V2.7H1.5c-0.5,0-1-0.5-1-1c0-0.6,0.5-1,1-1h8.7
		C10.8,0.6,11.2,1.1,11.2,1.7z"/>
	<path class="st0" d="M24.9,1.7v12.2c0,0.5-0.5,1-1,1c-0.6,0-1-0.5-1-1V8.2l-7.6,1.1v4.7c0,0.5-0.5,1-1.1,1c-0.6,0-1-0.5-1-1V1.7
		c0-0.6,0.4-1,1-1c0.6,0,1.1,0.4,1.1,1v5.5l7.6-1.1V1.7c0-0.6,0.5-1,1-1C24.4,0.6,24.9,1.1,24.9,1.7z"/>
	<path class="st0" d="M38.9,13.5c0,0.1,0.1,0.3,0.1,0.4c0,0.5-0.4,1-1,1c-0.5,0-0.8-0.2-1-0.7l-1.5-4.4l-4.3,0.9l-1.4,3.4
		c-0.1,0.4-0.5,0.7-1,0.7c-0.6,0-1-0.5-1-1c0-0.1,0-0.3,0.1-0.4l0.9-2.3c-0.4-0.1-0.7-0.5-0.7-1s0.3-0.9,0.8-1L29.5,9l3.1-7.9
		c0.2-0.4,0.6-0.7,1-0.7c0.4,0,0.8,0.2,1,0.7L38.9,13.5z M34.7,7.9l-1.1-3.4l-1.6,4L34.7,7.9z"/>
	<path class="st0" d="M50,1.7c0,0.6-0.4,1-1,1h-3.4v11.2c0,0.5-0.5,1-1,1s-1-0.5-1-1V2.7h-3.2c-0.5,0-1-0.5-1-1c0-0.6,0.5-1,1-1H49
		C49.6,0.6,50,1.1,50,1.7z"/>
	<path class="st0" d="M59.4,13.8V1.7c0-0.5,0.5-1,1-1H64c4.3,0,4.8,3.1,4.8,3.8c0,1.2-0.4,2.1-1,2.7c1.4,0.7,2.1,1.8,2.1,3.4
		c0,2.9-3,4.5-9.3,4.5C59.9,15,59.4,14.8,59.4,13.8z M61.5,6.4h3.3c1.1,0,1.8-1,1.8-1.9c0-0.3-0.2-1.7-2.7-1.7h-2.5V6.4z M61.5,12.9
		c3.4-0.1,6.3-0.8,6.3-2.4c0-1.4-1.5-2-2.8-2h-3.5V12.9z"/>
	<path class="st0" d="M84.4,5.2c0,1.3-0.1,2.6-0.2,4.1c-0.4,3.4-2.2,5.7-5.9,5.7c-3.5,0-5.5-3.2-5.7-7.7c0-0.9,0-1.7,0-2.4
		c0-1.1,0-2.1,0-3.2c0-0.3,0.2-1,1.1-1c0.8,0,1,0.7,1,1c0,1,0,1.9,0,2.9c0,0.8,0,1.5,0,2.4c0.1,3,0.9,6.1,3.6,6.1
		c1.7,0,3.4-1,3.8-3.9c0.2-1.4,0.2-2.7,0.2-4.1c0-1,0-2.1,0-3.3c0-0.3,0.1-1,1-1s1,0.7,1,1C84.4,2.9,84.4,4,84.4,5.2z"/>
	<path class="st0" d="M88,4.4c0-2.9,2.6-3.8,5-3.8c1.6,0,4.5,0.6,4.5,3.1c0,0.6-0.4,1.1-1,1.1c-0.5,0-0.9-0.4-1-0.9
		C95.4,3,94.1,2.6,93,2.6c-1.4,0-2.7,0.5-2.7,1.8c0,0.9,0.9,1.5,2.7,2c3.1,0.9,4.6,2.3,4.6,4.3c0,2.9-2.8,4.2-5.1,4.2
		c-2.3,0-4.4-1.3-5.1-3c-0.1-0.1-0.1-0.4-0.1-0.5c0-0.6,0.5-1,1.1-1c0.5,0,0.9,0.3,1,0.8c0.4,1.3,1.9,1.8,3.1,1.8
		c1.3,0,2.9-0.7,2.9-2.1c0-0.7-0.2-1.6-2.9-2.4C90.4,7.9,88,6.8,88,4.4z"/>
	<path class="st0" d="M112.4,1.7v12.2c0,0.5-0.5,1-1,1c-0.6,0-1-0.5-1-1V8.2l-7.6,1.1v4.7c0,0.5-0.5,1-1.1,1c-0.6,0-1-0.5-1-1V1.7
		c0-0.6,0.4-1,1-1c0.6,0,1.1,0.4,1.1,1v5.5l7.6-1.1V1.7c0-0.6,0.5-1,1-1C111.9,0.6,112.4,1.1,112.4,1.7z"/>
	<path class="st0" d="M117.7,15.9c-0.2,0.4-0.4,0.8-1,0.8c-0.5,0-0.9-0.4-0.9-0.9c0-0.1,0-0.2,0.1-0.3l0.4-1
		c-0.1-0.2-0.2-0.4-0.2-0.7c0-0.7,0.6-1.3,1.2-1.3c0.6,0,1.1,0.5,1.1,1.1C118.4,14,118,15.1,117.7,15.9z"/>
	<path class="st0" d="M134.8,12.9c0.6,0,1,0.5,1,1c0,0.6-0.4,1-1,1h-5c-0.6,0-1-0.5-1-1c0-0.6,0.5-1,1-1h1.5V2.7h-1.5
		c-0.6,0-1-0.5-1-1.1c0-0.6,0.5-1,1-1h5c0.6,0,1,0.4,1,1c0,0.6-0.4,1.1-1,1.1h-1.4v10.1H134.8z"/>
	<path class="st0" d="M139.1,4.4c0-2.9,2.6-3.8,5-3.8c1.6,0,4.5,0.6,4.5,3.1c0,0.6-0.4,1.1-1,1.1c-0.5,0-0.9-0.4-1-0.9
		c-0.1-0.9-1.4-1.3-2.6-1.3c-1.4,0-2.7,0.5-2.7,1.8c0,0.9,0.9,1.5,2.7,2c3.1,0.9,4.6,2.3,4.6,4.3c0,2.9-2.8,4.2-5.1,4.2
		c-2.3,0-4.4-1.3-5.1-3c-0.1-0.1-0.1-0.4-0.1-0.5c0-0.6,0.5-1,1.1-1c0.5,0,0.9,0.3,1,0.8c0.4,1.3,1.9,1.8,3.1,1.8
		c1.3,0,2.9-0.7,2.9-2.1c0-0.7-0.2-1.6-2.9-2.4C141.5,7.9,139.1,6.8,139.1,4.4z"/>
	<path class="st0" d="M161.2,5l0,8.9c0,0.6-0.5,1-1,1c-0.5,0-1-0.5-1-1l0-12.2c0-0.5,0.4-1,1-1c0.3,0,0.7,0.2,0.9,0.4l6.6,9.5V1.7
		c0-0.6,0.5-1,1-1c0.5,0,1,0.5,1,1v12.2c0,0.6-0.5,1-1,1c-0.3,0-0.7-0.2-0.9-0.5L161.2,5z"/>
	<path class="st0" d="M172.6,8.3c0-4.2,2.9-7.7,6.2-7.7c3.1,0,5.4,3,5.4,6.6c0,4.2-2.9,7.7-6.2,7.7C174.8,15,172.6,11.9,172.6,8.3z
		 M174.6,8.3c0,2.5,1.4,4.7,3.3,4.7c2.2,0,4.2-2.6,4.2-5.6c0-2.4-1.4-4.7-3.5-4.7C176.5,2.6,174.6,5.2,174.6,8.3z"/>
	<path class="st0" d="M196.7,1.7c0,0.6-0.4,1-1,1h-3.4v11.2c0,0.5-0.5,1-1,1c-0.6,0-1-0.5-1-1V2.7H187c-0.5,0-1-0.5-1-1
		c0-0.6,0.5-1,1-1h8.7C196.3,0.6,196.7,1.1,196.7,1.7z"/>
	<path class="st0" d="M206,13.8V1.7c0-0.5,0.5-1,1-1h3.6c4.3,0,4.8,3.1,4.8,3.8c0,1.2-0.4,2.1-1,2.7c1.4,0.7,2.1,1.8,2.1,3.4
		c0,2.9-3,4.5-9.3,4.5C206.5,15,206,14.8,206,13.8z M208.1,6.4h3.3c1.1,0,1.8-1,1.8-1.9c0-0.3-0.2-1.7-2.7-1.7h-2.5V6.4z
		 M208.1,12.9c3.4-0.1,6.3-0.8,6.3-2.4c0-1.4-1.5-2-2.8-2h-3.5V12.9z"/>
	<path class="st0" d="M231.1,5.2c0,1.3-0.1,2.6-0.2,4.1c-0.4,3.4-2.2,5.7-5.9,5.7c-3.5,0-5.5-3.2-5.7-7.7c0-0.9,0-1.7,0-2.4
		c0-1.1,0-2.1,0-3.2c0-0.3,0.2-1,1.1-1c0.8,0,1,0.7,1,1c0,1,0,1.9,0,2.9c0,0.8,0,1.5,0,2.4c0.1,3,0.9,6.1,3.6,6.1
		c1.7,0,3.4-1,3.8-3.9c0.2-1.4,0.2-2.7,0.2-4.1c0-1,0-2.1,0-3.3c0-0.3,0.1-1,1-1c0.9,0,1,0.7,1,1C231.1,2.9,231.1,4,231.1,5.2z"/>
	<path class="st0" d="M244.5,13.9c0,0.5-0.4,1-1,1c-0.4,0-0.7-0.2-0.9-0.5c-2.5-4.2-4.2-4.3-5-4.3c-0.4,0-0.9,0-1.4,0.1v3.7
		c0,0.6-0.5,1-1,1c-0.6,0-1-0.4-1-1V1.8c0-1.2,0.3-1.3,2.2-1.3c0.1,0,0.2,0,0.4,0c4.7,0,7.3,1.7,7.3,4.6c0,2.1-1.4,3.3-3.1,4.1
		c1,0.8,2.4,2.2,3.5,4.3C244.5,13.6,244.5,13.8,244.5,13.9z M236.2,8.1c2.6-0.2,5.7-1,5.7-3c0-1.7-2-2.5-5.3-2.5h-0.4V8.1z"/>
	<path class="st0" d="M249.3,5l0,8.9c0,0.6-0.5,1-1,1c-0.5,0-1-0.5-1-1l0-12.2c0-0.5,0.4-1,1-1c0.3,0,0.7,0.2,0.9,0.4l6.6,9.5V1.7
		c0-0.6,0.5-1,1-1c0.5,0,1,0.5,1,1v12.2c0,0.6-0.5,1-1,1c-0.3,0-0.7-0.2-0.9-0.5L249.3,5z"/>
	<path class="st0" d="M266.6,12.9c0.6,0,1,0.5,1,1c0,0.6-0.4,1-1,1h-5c-0.6,0-1-0.5-1-1c0-0.6,0.5-1,1-1h1.5V2.7h-1.5
		c-0.6,0-1-0.5-1-1.1c0-0.6,0.5-1,1-1h5c0.6,0,1,0.4,1,1c0,0.6-0.4,1.1-1,1.1h-1.4v10.1H266.6z"/>
	<path class="st0" d="M272.5,5l0,8.9c0,0.6-0.5,1-1,1c-0.5,0-1-0.5-1-1l0-12.2c0-0.5,0.4-1,1-1c0.3,0,0.7,0.2,0.9,0.4l6.6,9.5V1.7
		c0-0.6,0.5-1,1-1c0.5,0,1,0.5,1,1v12.2c0,0.6-0.5,1-1,1c-0.3,0-0.7-0.2-0.9-0.5L272.5,5z"/>
	<path class="st0" d="M297.1,9.5c0,0.6-0.5,1-1,1c-0.8,2.5-2.9,4.4-5.9,4.4c-3.9,0-6.4-3.4-6.4-7c0-3.5,2.6-7.4,6.7-7.4
		c4,0,5.6,3.3,5.6,4.2c0,0.6-0.4,1-1,1c-0.5,0-0.8-0.2-1-0.7c-0.4-1.1-1.4-2.4-3.6-2.4c-3.4,0-4.6,3.6-4.6,5.3
		c0,2.1,1.4,4.9,4.3,4.9c1.8,0,3.2-1,3.8-2.6c-0.9,0-1.5,0.2-1.9,0.3c-0.2,0-0.3,0.1-0.5,0.1c-0.5,0-1-0.4-1-1c0-0.4,0.3-0.8,0.7-1
		c0.4-0.2,1.7-0.4,2.8-0.4c0.8,0,1.5,0.1,2.3,0.4C296.9,8.7,297.1,9.1,297.1,9.5z"/>
	<path class="st0" d="M300.9,14.9c-0.7,0-1.1-0.5-1.1-1.2c0-0.7,0.6-1.4,1.2-1.4c0.7,0,1.1,0.6,1.1,1.2
		C302.2,14.3,301.5,14.9,300.9,14.9z M300.1,1.8c0-0.5,0.5-1,1-1c0.6,0,1,0.5,1,1v8.6c0,0.6-0.4,1-1,1c-0.6,0-1-0.5-1-1V1.8z"/>
</g>
<g>
	<path class="st1" d="M39.4,38.7c0,0.1,0.1,0.3,0.1,0.4c0,0.5-0.4,1-1,1c-0.5,0-0.8-0.2-1-0.7L36,35.1L31.7,36l-1.4,3.4
		c-0.1,0.4-0.5,0.7-1,0.7c-0.6,0-1-0.5-1-1c0-0.1,0-0.3,0.1-0.4l0.9-2.3c-0.4-0.1-0.7-0.5-0.7-1s0.3-0.9,0.8-1l0.8-0.2l3.1-7.9
		c0.2-0.4,0.6-0.7,1-0.7c0.4,0,0.8,0.2,1,0.7L39.4,38.7z M35.3,33.1l-1.1-3.4l-1.6,4L35.3,33.1z"/>
	<path class="st1" d="M49.7,39.1v-12c0-0.9,0.1-1.3,2-1.3c5.3,0,7.8,1.6,7.8,4.5c0,3.8-4.8,5-7.7,5.1v3.7c0,0.6-0.4,1-1,1
		C50.2,40.1,49.7,39.7,49.7,39.1z M51.8,33.4c1.9-0.1,5.7-0.7,5.7-3.1c0-1.6-1.9-2.4-5.4-2.4h-0.3V33.4z"/>
	<path class="st1" d="M72.1,39.1c0,0.5-0.4,1-1,1c-0.4,0-0.7-0.2-0.9-0.5c-2.5-4.2-4.2-4.3-5-4.3c-0.4,0-0.9,0-1.4,0.1v3.7
		c0,0.6-0.5,1-1,1c-0.6,0-1-0.4-1-1V27c0-1.2,0.3-1.3,2.2-1.3c0.1,0,0.2,0,0.4,0c4.7,0,7.3,1.7,7.3,4.6c0,2.1-1.4,3.3-3.1,4.1
		c1,0.8,2.4,2.2,3.5,4.3C72.1,38.8,72.1,38.9,72.1,39.1z M63.8,33.3c2.6-0.2,5.7-1,5.7-3c0-1.7-2-2.5-5.3-2.5h-0.4V33.3z"/>
	<path class="st1" d="M74.7,33.5c0-4.2,2.9-7.7,6.2-7.7c3.1,0,5.4,3,5.4,6.7c0,4.2-2.9,7.7-6.2,7.7C76.9,40.2,74.7,37.1,74.7,33.5z
		 M76.7,33.5c0,2.5,1.4,4.7,3.3,4.7c2.2,0,4.2-2.6,4.2-5.6c0-2.4-1.4-4.7-3.5-4.7C78.6,27.8,76.7,30.3,76.7,33.5z"/>
	<path class="st1" d="M96.7,25.9c0.5,0,1,0.5,1,1c0,0.6-0.5,1-1,1v8.5c0,1.6-1,3.6-3.8,3.6c-3.5,0-4-2.9-4-3.8c0-0.6,0.4-1.1,1-1.1
		c0.6,0,1,0.5,1,1c0,1.2,0.8,1.7,1.9,1.7c1.6,0,1.7-1,1.7-1.5V28h-1.9c-0.6,0-1.1-0.5-1.1-1c0-0.5,0.5-1,1.1-1H96.7z"/>
	<path class="st1" d="M109,38c0.6,0,1,0.5,1,1c0,0.6-0.4,1-1,1h-8.3c-0.6,0-1-0.5-1-1V26.9c0-0.6,0.5-1,1-1h8.4c0.6,0,1,0.5,1,1
		c0,0.6-0.4,1-1,1h-7.3v3.8h6.4c0.6,0,1,0.4,1,1c0,0.6-0.4,1-1,1h-6.4V38H109z"/>
	<path class="st1" d="M118.8,40.2c-3.4,0-6.1-2.7-6.1-6.3c0-4.2,3.3-8.1,6.3-8.1c1.2,0,2.2,0.3,2.8,0.7c0.2-0.1,0.3-0.1,0.5-0.1
		c0.6,0,1,0.4,1,1v1.3c0,0.6-0.5,1-1,1c-0.6,0-1-0.4-1-1c-0.4-0.4-1-0.8-2.3-0.8c-2,0-4.2,3-4.2,6c0,3,2.5,4.2,4,4.2
		c1.3,0,2.4-0.4,3.4-1.7c0.3-0.3,0.5-0.4,0.8-0.4c0.5,0,1,0.4,1,1c0,0.2,0,0.4-0.2,0.6C122.6,39.3,120.9,40.2,118.8,40.2z"/>
	<path class="st1" d="M136.4,26.9c0,0.6-0.4,1-1,1H132v11.2c0,0.5-0.5,1-1,1s-1-0.5-1-1V27.9h-3.2c-0.5,0-1-0.5-1-1c0-0.6,0.5-1,1-1
		h8.7C136,25.8,136.4,26.3,136.4,26.9z"/>
	<path class="st1" d="M145.8,39V26.9c0-0.5,0.5-1,1-1h3.6c4.3,0,4.8,3.1,4.8,3.8c0,1.2-0.4,2.1-1,2.7c1.4,0.7,2.1,1.8,2.1,3.4
		c0,2.9-3,4.5-9.3,4.5C146.3,40.2,145.8,40,145.8,39z M147.9,31.6h3.3c1.1,0,1.8-1,1.8-1.9c0-0.3-0.2-1.7-2.7-1.7h-2.5V31.6z
		 M147.9,38.1c3.4-0.1,6.3-0.8,6.3-2.4c0-1.4-1.5-2-2.8-2h-3.5V38.1z"/>
	<path class="st1" d="M168.3,26.3c0.2-0.3,0.5-0.5,0.9-0.5c0.5,0,1,0.4,1,1c0,0.2,0,0.4-0.2,0.7l-7.2,12.1c-0.2,0.3-0.5,0.5-0.9,0.5
		c-0.6,0-1-0.5-1-1c0-0.2,0-0.3,0.2-0.6l1.8-3.1l-4.7-8c-0.1-0.2-0.2-0.4-0.2-0.6c0-0.5,0.5-1,1-1c0.4,0,0.7,0.2,0.9,0.5l4.1,7
		L168.3,26.3z"/>
	<path class="st1" d="M28.6,64.2V52c0-0.5,0.5-1,1-1h3.6c4.3,0,4.8,3.1,4.8,3.8c0,1.2-0.4,2.1-1,2.7c1.4,0.7,2.1,1.8,2.1,3.4
		c0,2.9-3,4.5-9.3,4.5C29.1,65.3,28.6,65.2,28.6,64.2z M30.7,56.8H34c1.1,0,1.8-1,1.8-1.9c0-0.3-0.2-1.7-2.7-1.7h-2.5V56.8z
		 M30.7,63.3c3.4-0.1,6.3-0.8,6.3-2.4c0-1.4-1.5-2-2.8-2h-3.5V63.3z"/>
	<path class="st1" d="M52.6,63.9c0,0.1,0.1,0.3,0.1,0.4c0,0.5-0.4,1-1,1c-0.5,0-0.8-0.2-1-0.7l-1.5-4.4l-4.3,0.9l-1.4,3.4
		c-0.1,0.4-0.5,0.7-1,0.7c-0.6,0-1-0.5-1-1c0-0.1,0-0.3,0.1-0.4l0.9-2.3c-0.4-0.1-0.7-0.5-0.7-1s0.3-0.9,0.8-1l0.8-0.2l3.1-7.9
		c0.2-0.4,0.6-0.7,1-0.7c0.4,0,0.8,0.2,1,0.7L52.6,63.9z M48.5,58.3l-1.1-3.4l-1.6,4L48.5,58.3z"/>
	<path class="st1" d="M61.3,63.2c0.6,0,1,0.5,1,1c0,0.6-0.4,1-1,1h-5c-0.6,0-1-0.5-1-1c0-0.6,0.5-1,1-1h1.5V53.1h-1.5
		c-0.6,0-1-0.5-1-1.1c0-0.6,0.5-1,1-1h5c0.6,0,1,0.4,1,1c0,0.6-0.4,1.1-1,1.1h-1.4v10.1H61.3z"/>
	<path class="st1" d="M66.1,65.3C66.1,65.3,66.1,65.3,66.1,65.3c-0.6,0-1.1-0.5-1.1-1V52c0-0.5,0.5-1,1-1c0.5,0,1,0.5,1,1v11.1
		l5.6-0.4c0,0,0.1,0,0.1,0c0.6,0,1,0.4,1,1c0,0.5-0.4,1-0.9,1L66.1,65.3z"/>
	<path class="st1" d="M85,63.2c0.6,0,1,0.5,1,1c0,0.6-0.4,1-1,1h-8.3c-0.6,0-1-0.5-1-1V52c0-0.6,0.5-1,1-1H85c0.6,0,1,0.5,1,1
		c0,0.6-0.4,1-1,1h-7.3v3.8h6.4c0.6,0,1,0.4,1,1c0,0.6-0.4,1-1,1h-6.4v4.2H85z"/>
	<path class="st1" d="M98.3,51.5c0.2-0.3,0.5-0.5,0.9-0.5c0.5,0,1,0.4,1,1c0,0.2,0,0.4-0.2,0.7l-7.2,12.1c-0.2,0.3-0.5,0.5-0.9,0.5
		c-0.6,0-1-0.5-1-1c0-0.2,0-0.3,0.2-0.6l1.8-3.1l-4.7-8c-0.1-0.2-0.2-0.4-0.2-0.6c0-0.5,0.5-1,1-1c0.4,0,0.7,0.2,0.9,0.5l4.1,7
		L98.3,51.5z"/>
	<path class="st1" d="M110,54.8c0-2.9,2.6-3.8,5-3.8c1.6,0,4.5,0.6,4.5,3.1c0,0.6-0.4,1.1-1,1.1c-0.5,0-0.9-0.4-1-0.9
		c-0.1-0.9-1.4-1.3-2.6-1.3c-1.4,0-2.7,0.5-2.7,1.8c0,0.9,0.9,1.5,2.7,2c3.1,0.9,4.6,2.3,4.6,4.3c0,2.9-2.8,4.2-5.1,4.2
		c-2.3,0-4.4-1.3-5.1-3c-0.1-0.1-0.1-0.4-0.1-0.5c0-0.6,0.5-1,1.1-1c0.5,0,0.9,0.3,1,0.8c0.4,1.3,1.9,1.8,3.1,1.8
		c1.3,0,2.9-0.7,2.9-2.1c0-0.7-0.2-1.6-2.9-2.4C112.4,58.3,110,57.2,110,54.8z"/>
	<path class="st1" d="M134.4,52v12.2c0,0.5-0.5,1-1,1c-0.6,0-1-0.5-1-1v-5.7l-7.6,1.1v4.7c0,0.5-0.5,1-1.1,1c-0.6,0-1-0.5-1-1V52
		c0-0.6,0.4-1,1-1c0.6,0,1.1,0.4,1.1,1v5.5l7.6-1.1V52c0-0.6,0.5-1,1-1C133.9,51,134.4,51.4,134.4,52z"/>
	<path class="st1" d="M146.8,63.2c0.6,0,1,0.5,1,1c0,0.6-0.4,1-1,1h-8.3c-0.6,0-1-0.5-1-1V52c0-0.6,0.5-1,1-1h8.4c0.6,0,1,0.5,1,1
		c0,0.6-0.4,1-1,1h-7.3v3.8h6.4c0.6,0,1,0.4,1,1c0,0.6-0.4,1-1,1h-6.4v4.2H146.8z"/>
	<path class="st1" d="M160.2,63.2c0.6,0,1,0.5,1,1c0,0.6-0.4,1-1,1h-8.3c-0.6,0-1-0.5-1-1V52c0-0.6,0.5-1,1-1h8.4c0.6,0,1,0.5,1,1
		c0,0.6-0.4,1-1,1h-7.3v3.8h6.4c0.6,0,1,0.4,1,1c0,0.6-0.4,1-1,1h-6.4v4.2H160.2z"/>
	<path class="st1" d="M176,52v12.2c0,0.5-0.5,1-1,1c-0.6,0-1-0.5-1-1v-5.7l-7.6,1.1v4.7c0,0.5-0.5,1-1.1,1c-0.6,0-1-0.5-1-1V52
		c0-0.6,0.4-1,1-1c0.6,0,1.1,0.4,1.1,1v5.5l7.6-1.1V52c0-0.6,0.5-1,1-1C175.5,51,176,51.4,176,52z"/>
	<path class="st1" d="M189.9,63.9c0,0.1,0.1,0.3,0.1,0.4c0,0.5-0.4,1-1,1c-0.5,0-0.8-0.2-1-0.7l-1.5-4.4l-4.3,0.9l-1.4,3.4
		c-0.1,0.4-0.5,0.7-1,0.7c-0.6,0-1-0.5-1-1c0-0.1,0-0.3,0.1-0.4l0.9-2.3c-0.4-0.1-0.7-0.5-0.7-1s0.3-0.9,0.8-1l0.8-0.2l3.1-7.9
		c0.2-0.4,0.6-0.7,1-0.7c0.4,0,0.8,0.2,1,0.7L189.9,63.9z M185.7,58.3l-1.1-3.4l-1.6,4L185.7,58.3z"/>
	<path class="st1" d="M194.8,55.4l0,8.9c0,0.6-0.5,1-1,1c-0.5,0-1-0.5-1-1l0-12.2c0-0.5,0.4-1,1-1c0.3,0,0.7,0.2,0.9,0.4l6.6,9.5V52
		c0-0.6,0.5-1,1-1c0.5,0,1,0.5,1,1v12.2c0,0.6-0.5,1-1,1c-0.3,0-0.7-0.2-0.9-0.5L194.8,55.4z"/>
	<path class="st1" d="M224.6,63.7c0.1,0.1,0.2,0.4,0.2,0.6c0,0.5-0.4,1-1,1c-0.3,0-0.6-0.1-0.8-0.4l-1.2-1.5
		c-0.9,1.1-2.2,1.9-3.8,1.9c-2.1,0-4.3-1.6-4.3-4c0-2.2,1.4-3.3,2.8-4.1c-0.6-0.7-1.2-1.7-1.2-2.9c0-1.7,1.6-3.2,3.3-3.2
		c1.7,0,3.3,1.5,3.3,3.1c0,1.6-0.8,2.6-2.2,3.5l1.8,2.2l0.2-0.5c0.2-0.7,0.4-1,1-1c0.6,0,1,0.4,1,1c0,0.5-0.4,1.6-0.7,2.2
		L224.6,63.7z M220.5,61.9l-2.6-3.2c-1.2,0.7-2.2,1.4-2.2,2.6c0,1.4,1.4,2,2.4,2C219.1,63.4,219.9,62.7,220.5,61.9z M218.3,56.3
		c1.6-0.9,1.6-1.4,1.6-1.9c0-0.6-0.7-1.2-1.3-1.2c-0.6,0-1.3,0.5-1.3,1.2C217.3,55,217.9,55.8,218.3,56.3z"/>
	<path class="st1" d="M39,89.5c0,0.5-0.4,1-1,1c-0.4,0-0.7-0.2-0.9-0.5c-2.5-4.2-4.2-4.3-5-4.3c-0.4,0-0.9,0-1.4,0.1v3.7
		c0,0.6-0.5,1-1,1c-0.6,0-1-0.4-1-1V77.3c0-1.2,0.3-1.3,2.2-1.3c0.1,0,0.2,0,0.4,0c4.7,0,7.3,1.7,7.3,4.6c0,2.1-1.4,3.3-3.1,4.1
		c1,0.8,2.4,2.2,3.5,4.3C38.9,89.1,39,89.3,39,89.5z M30.6,83.7c2.6-0.2,5.7-1,5.7-3c0-1.7-2-2.5-5.3-2.5h-0.4V83.7z"/>
	<path class="st1" d="M52.5,89.1c0,0.1,0.1,0.3,0.1,0.4c0,0.5-0.4,1-1,1c-0.5,0-0.8-0.2-1-0.7L49,85.4l-4.3,0.9l-1.4,3.4
		c-0.1,0.4-0.5,0.7-1,0.7c-0.6,0-1-0.5-1-1c0-0.1,0-0.3,0.1-0.4l0.9-2.3c-0.4-0.1-0.7-0.5-0.7-1s0.3-0.9,0.8-1l0.8-0.2l3.1-7.9
		c0.2-0.4,0.6-0.7,1-0.7c0.4,0,0.8,0.2,1,0.7L52.5,89.1z M48.3,83.5l-1.1-3.4l-1.6,4L48.3,83.5z"/>
	<path class="st1" d="M67.2,77.2v12.2c0,0.5-0.5,1-1,1c-0.6,0-1-0.5-1-1v-5.7l-7.6,1.1v4.7c0,0.5-0.5,1-1.1,1c-0.6,0-1-0.5-1-1V77.2
		c0-0.6,0.4-1,1-1c0.6,0,1.1,0.4,1.1,1v5.5l7.6-1.1v-4.4c0-0.6,0.5-1,1-1C66.7,76.2,67.2,76.6,67.2,77.2z"/>
	<path class="st1" d="M82.1,80.7c0,1.3-0.1,2.6-0.2,4.1c-0.4,3.4-2.2,5.7-5.9,5.7c-3.5,0-5.5-3.2-5.7-7.7c0-0.9,0-1.7,0-2.4
		c0-1.1,0-2.1,0-3.2c0-0.3,0.2-1,1.1-1c0.8,0,1,0.7,1,1c0,1,0,1.9,0,2.9c0,0.8,0,1.5,0,2.4c0.1,3,0.9,6.1,3.6,6.1
		c1.7,0,3.4-1,3.8-3.9c0.2-1.4,0.2-2.7,0.2-4.1c0-1,0-2.1,0-3.3c0-0.3,0.1-1,1-1s1,0.7,1,1C82,78.4,82.1,79.6,82.1,80.7z"/>
	<path class="st1" d="M86.2,90.5C86.1,90.5,86.1,90.5,86.2,90.5c-0.6,0-1.1-0.5-1.1-1V77.2c0-0.5,0.5-1,1-1c0.5,0,1,0.5,1,1v11.1
		l5.6-0.4c0,0,0.1,0,0.1,0c0.6,0,1,0.4,1,1c0,0.5-0.4,1-0.9,1L86.2,90.5z"/>
	<path class="st1" d="M103.7,80c0-2.9,2.6-3.8,5-3.8c1.6,0,4.5,0.6,4.5,3.1c0,0.6-0.4,1.1-1,1.1c-0.5,0-0.9-0.4-1-0.9
		c-0.1-0.9-1.4-1.3-2.6-1.3c-1.4,0-2.7,0.5-2.7,1.8c0,0.9,0.9,1.5,2.7,2c3.1,0.9,4.6,2.3,4.6,4.3c0,2.9-2.8,4.2-5.1,4.2
		c-2.3,0-4.4-1.3-5.1-3c-0.1-0.1-0.1-0.4-0.1-0.5c0-0.6,0.5-1,1.1-1c0.5,0,0.9,0.3,1,0.8c0.4,1.3,1.9,1.8,3.1,1.8
		c1.3,0,2.9-0.7,2.9-2.1c0-0.7-0.2-1.6-2.9-2.4C106.1,83.5,103.7,82.4,103.7,80z"/>
	<path class="st1" d="M116.2,89.3c0-0.7,0.6-1.3,1.2-1.3c0.6,0,1.1,0.5,1.1,1.2c0,0.8-0.6,1.4-1.2,1.4
		C116.6,90.5,116.2,90,116.2,89.3z"/>
	<path class="st1" d="M129.3,80c0-2.9,2.6-3.8,5-3.8c1.6,0,4.5,0.6,4.5,3.1c0,0.6-0.4,1.1-1,1.1c-0.5,0-0.9-0.4-1-0.9
		c-0.1-0.9-1.4-1.3-2.6-1.3c-1.4,0-2.7,0.5-2.7,1.8c0,0.9,0.9,1.5,2.7,2c3.1,0.9,4.6,2.3,4.6,4.3c0,2.9-2.8,4.2-5.1,4.2
		c-2.3,0-4.4-1.3-5.1-3c-0.1-0.1-0.1-0.4-0.1-0.5c0-0.6,0.5-1,1.1-1c0.5,0,0.9,0.3,1,0.8c0.4,1.3,1.9,1.8,3.1,1.8
		c1.3,0,2.9-0.7,2.9-2.1c0-0.7-0.2-1.6-2.9-2.4C131.7,83.5,129.3,82.4,129.3,80z"/>
	<path class="st1" d="M153.7,77.2v12.2c0,0.5-0.5,1-1,1c-0.6,0-1-0.5-1-1v-5.7l-7.6,1.1v4.7c0,0.5-0.5,1-1.1,1c-0.6,0-1-0.5-1-1
		V77.2c0-0.6,0.4-1,1-1c0.6,0,1.1,0.4,1.1,1v5.5l7.6-1.1v-4.4c0-0.6,0.5-1,1-1C153.2,76.2,153.7,76.6,153.7,77.2z"/>
	<path class="st1" d="M162.6,88.4c0.6,0,1,0.5,1,1c0,0.6-0.4,1-1,1h-5c-0.6,0-1-0.5-1-1c0-0.6,0.5-1,1-1h1.5V78.3h-1.5
		c-0.6,0-1-0.5-1-1.1c0-0.6,0.5-1,1-1h5c0.6,0,1,0.4,1,1c0,0.6-0.4,1.1-1,1.1h-1.4v10.1H162.6z"/>
	<path class="st1" d="M168.5,80.6l0,8.9c0,0.6-0.5,1-1,1c-0.5,0-1-0.5-1-1l0-12.2c0-0.5,0.4-1,1-1c0.3,0,0.7,0.2,0.9,0.4l6.6,9.5
		v-8.9c0-0.6,0.5-1,1-1c0.5,0,1,0.5,1,1v12.2c0,0.6-0.5,1-1,1c-0.3,0-0.7-0.2-0.9-0.5L168.5,80.6z"/>
	<path class="st1" d="M180.7,90.5c-0.4-0.1-0.8-0.6-0.8-1V77.2c0-0.6,0.5-1,1-1c3.4,0,9.6,1.2,9.6,7.9c0,4.7-3.3,6.8-7.3,6.8
		C182.1,90.9,180.9,90.6,180.7,90.5z M182,88.7c0.4,0.1,0.8,0.1,1.2,0.1c3.2,0,5.2-1.5,5.2-4.7c0-4-3-5.5-6.5-5.8V88.7z"/>
	<path class="st1" d="M202.8,88.4c0.6,0,1,0.5,1,1c0,0.6-0.4,1-1,1h-8.3c-0.6,0-1-0.5-1-1V77.2c0-0.6,0.5-1,1-1h8.4c0.6,0,1,0.5,1,1
		c0,0.6-0.4,1-1,1h-7.3v3.8h6.4c0.6,0,1,0.4,1,1c0,0.6-0.4,1-1,1h-6.4v4.2H202.8z"/>
</g>
</svg>
