<?xml version="1.0" encoding="utf-8"?>
<!-- Generator: Adobe Illustrator 22.1.0, SVG Export Plug-In . SVG Version: 6.00 Build 0)  -->
<svg version="1.1" id="Layer_1" xmlns="http://www.w3.org/2000/svg" xmlns:xlink="http://www.w3.org/1999/xlink" x="0px" y="0px"
	 viewBox="0 0 291.5 15.5" style="enable-background:new 0 0 291.5 15.5;" xml:space="preserve">
<style type="text/css">
	.st0{fill:#db39ad;}
</style>
<g>
	<path class="st0" d="M10.2,0.1H1.5C0.7,0.1,0,0.8,0,1.7c0,0.8,0.7,1.5,1.5,1.5h2.7v10.7c0,0.8,0.7,1.5,1.5,1.5
		c0.8,0,1.5-0.7,1.5-1.5V3.2h2.9c0.8,0,1.5-0.7,1.5-1.5C11.7,0.8,11.1,0.1,10.2,0.1z"/>
	<path class="st0" d="M23.9,0.1c-0.9,0-1.5,0.7-1.5,1.5v3.9l-6.6,0.9V1.7c0-0.9-0.7-1.5-1.6-1.5c-0.9,0-1.5,0.7-1.5,1.5v12.2
		c0,0.8,0.7,1.5,1.5,1.5c0.9,0,1.6-0.7,1.6-1.5V9.7l6.6-0.9v5.2c0,0.8,0.7,1.5,1.5,1.5c0.8,0,1.5-0.7,1.5-1.5V1.7
		C25.4,0.8,24.7,0.1,23.9,0.1z"/>
	<path class="st0" d="M35.1,1c-0.2-0.7-0.7-1-1.4-1c-0.6,0-1.2,0.4-1.5,1l-3,7.6l-0.5,0.1c-0.7,0.2-1.2,0.8-1.2,1.5
		c0,0.5,0.2,1,0.6,1.2l-0.8,1.9c-0.1,0.2-0.1,0.4-0.1,0.6c0,0.7,0.6,1.5,1.5,1.5c0.6,0,1.2-0.4,1.4-1l1.3-3.2l3.6-0.8l1.4,3.9
		c0.3,0.7,0.7,1,1.5,1c0.9,0,1.5-0.7,1.5-1.5c0-0.1,0-0.4-0.1-0.6L35.1,1z M34,7.6l-1.2,0.3L33.5,6L34,7.6z"/>
	<path class="st0" d="M49,0.1h-8.7c-0.8,0-1.5,0.7-1.5,1.5c0,0.8,0.7,1.5,1.5,1.5H43v10.7c0,0.8,0.7,1.5,1.5,1.5
		c0.8,0,1.5-0.7,1.5-1.5V3.2H49c0.8,0,1.5-0.7,1.5-1.5C50.5,0.8,49.9,0.1,49,0.1z"/>
	<path class="st0" d="M68.5,6.9c0.5-0.7,0.7-1.6,0.7-2.5c0,0-0.1-4.3-5.3-4.3h-3.6c-0.8,0-1.5,0.7-1.5,1.5v12.1
		c0,1.7,1.3,1.7,1.7,1.7c8.1,0,9.8-2.7,9.8-5C70.4,8.9,69.7,7.7,68.5,6.9z M61.9,12.4V9h3c0.8,0,2.3,0.3,2.3,1.5
		C67.3,11.5,65.2,12.3,61.9,12.4z M61.9,5.9V3.2h2c2.1,0,2.2,1.1,2.2,1.2c0,0.7-0.6,1.4-1.3,1.4H61.9z"/>
	<path class="st0" d="M84.8,1.7c0-0.8-0.5-1.5-1.5-1.5c-1.1,0-1.5,0.8-1.5,1.5c0,0.6,0,1.2,0,1.8c0,0.5,0,1,0,1.5c0,1.2,0,2.5-0.2,4
		c-0.3,2.8-2,3.4-3.3,3.4c-1.9,0-3-1.9-3.1-5.6c0-0.9,0-1.7,0-2.4c0-0.9,0-1.8,0-2.9c0-0.7-0.5-1.5-1.5-1.5c-1.2,0-1.6,0.9-1.6,1.5
		l0,0.9c0,0.8,0,1.5,0,2.3c0,0.7,0,1.5,0,2.4c0.2,5,2.5,8.2,6.2,8.2c3.6,0,5.8-2.1,6.4-6.1c0.2-1.3,0.3-2.7,0.3-4.2c0-1,0-1.9-0.1-3
		L84.8,1.7z"/>
	<path class="st0" d="M93.1,5.9c-2.1-0.6-2.4-1.2-2.4-1.6c0-1.1,1.4-1.3,2.2-1.3c1.1,0,2,0.4,2.1,0.9c0.1,0.8,0.8,1.3,1.5,1.3
		c0.9,0,1.5-0.7,1.5-1.6c0-2.6-2.7-3.6-5-3.6c-3.5,0-5.5,1.6-5.5,4.3c0,2.1,1.6,3.6,4.8,4.5c2.6,0.7,2.6,1.5,2.6,1.9
		c0,1.2-1.4,1.6-2.4,1.6c-1,0-2.3-0.5-2.6-1.5c-0.3-0.7-0.8-1.1-1.5-1.1c-0.9,0-1.6,0.7-1.6,1.5c0,0.2,0.1,0.5,0.1,0.7
		c0.9,2,3.1,3.3,5.6,3.3c2.7,0,5.6-1.7,5.6-4.7C98.1,8.4,96.5,6.8,93.1,5.9z"/>
	<path class="st0" d="M111.3,0.1c-0.9,0-1.5,0.7-1.5,1.5v3.9l-6.6,0.9V1.7c0-0.9-0.7-1.5-1.6-1.5c-0.9,0-1.5,0.7-1.5,1.5v12.2
		c0,0.8,0.7,1.5,1.5,1.5c0.9,0,1.6-0.7,1.6-1.5V9.7l6.6-0.9v5.2c0,0.8,0.7,1.5,1.5,1.5c0.8,0,1.5-0.7,1.5-1.5V1.7
		C112.9,0.8,112.2,0.1,111.3,0.1z"/>
	<path class="st0" d="M128.8,3.2c0.9,0,1.5-0.7,1.5-1.6c0-0.9-0.7-1.5-1.5-1.5h-5c-0.9,0-1.5,0.7-1.5,1.5c0,0.9,0.7,1.6,1.5,1.6h1
		v9.1h-1c-0.9,0-1.5,0.7-1.5,1.5c0,0.9,0.7,1.5,1.5,1.5h5c0.9,0,1.5-0.7,1.5-1.5c0-0.9-0.6-1.5-1.5-1.5h-0.9V3.2H128.8z"/>
	<path class="st0" d="M138.2,5.9c-2.1-0.6-2.4-1.2-2.4-1.6c0-1.1,1.4-1.3,2.2-1.3c1.1,0,2,0.4,2.1,0.9c0.1,0.8,0.8,1.3,1.5,1.3
		c0.9,0,1.5-0.7,1.5-1.6c0-2.6-2.7-3.6-5-3.6c-3.5,0-5.5,1.6-5.5,4.3c0,2.1,1.6,3.6,4.8,4.5c2.6,0.7,2.6,1.5,2.6,1.9
		c0,1.2-1.4,1.6-2.4,1.6c-1,0-2.3-0.5-2.6-1.5c-0.3-0.7-0.8-1.1-1.5-1.1c-0.9,0-1.6,0.7-1.6,1.5c0,0.2,0.1,0.5,0.1,0.7
		c0.9,2,3.1,3.3,5.6,3.3c2.7,0,5.6-1.7,5.6-4.7C143.2,8.4,141.6,6.8,138.2,5.9z"/>
	<path class="st0" d="M162.6,0.1c-0.9,0-1.5,0.7-1.5,1.5V9l-5.7-8.2c-0.3-0.4-0.8-0.7-1.3-0.7c-0.8,0-1.5,0.7-1.5,1.5l0,12.2
		c0,0.8,0.7,1.5,1.5,1.5c0.9,0,1.5-0.7,1.5-1.5l0-7.3l5.6,8.2c0.3,0.4,0.8,0.7,1.3,0.7c0.9,0,1.5-0.7,1.5-1.5V1.7
		C164.1,0.8,163.4,0.1,162.6,0.1z"/>
	<path class="st0" d="M172.7,0.1c-3.6,0-6.7,3.8-6.7,8.2c0,4,2.6,7.2,5.8,7.2c3.6,0,6.7-3.8,6.7-8.2C178.5,3.3,176,0.1,172.7,0.1z
		 M171.9,12.5c-1.6,0-2.8-1.8-2.8-4.2c0-2.8,1.6-5.2,3.5-5.2c1.8,0,3,2.2,3,4.2C175.5,10,173.8,12.5,171.9,12.5z"/>
	<path class="st0" d="M189.6,0.1h-8.7c-0.8,0-1.5,0.7-1.5,1.5c0,0.8,0.7,1.5,1.5,1.5h2.7v10.7c0,0.8,0.7,1.5,1.5,1.5
		c0.8,0,1.5-0.7,1.5-1.5V3.2h2.9c0.8,0,1.5-0.7,1.5-1.5C191.1,0.8,190.5,0.1,189.6,0.1z"/>
	<path class="st0" d="M209.1,6.9c0.5-0.7,0.7-1.6,0.7-2.5c0,0-0.1-4.3-5.3-4.3H201c-0.8,0-1.5,0.7-1.5,1.5v12.1
		c0,1.7,1.3,1.7,1.7,1.7c8.1,0,9.8-2.7,9.8-5C211,8.9,210.3,7.7,209.1,6.9z M202.6,12.4V9h3c0.8,0,2.3,0.3,2.3,1.5
		C207.9,11.5,205.8,12.3,202.6,12.4z M202.6,5.9V3.2h2c2.1,0,2.2,1.1,2.2,1.2c0,0.7-0.6,1.4-1.3,1.4H202.6z"/>
	<path class="st0" d="M225.4,1.7c0-0.8-0.5-1.5-1.5-1.5c-1.1,0-1.5,0.8-1.5,1.5c0,0.6,0,1.2,0,1.8c0,0.5,0,1,0,1.5
		c0,1.2,0,2.5-0.2,4c-0.3,2.8-2,3.4-3.3,3.4c-1.9,0-3-1.9-3.1-5.6c0-0.9,0-1.7,0-2.4c0-0.9,0-1.8,0-2.9c0-0.7-0.5-1.5-1.5-1.5
		c-1.2,0-1.6,0.9-1.6,1.5l0,0.9c0,0.8,0,1.5,0,2.3c0,0.7,0,1.5,0,2.4c0.2,5,2.5,8.2,6.2,8.2c3.6,0,5.8-2.1,6.4-6.1
		c0.2-1.3,0.3-2.7,0.3-4.2c0-1,0-1.9-0.1-2.9L225.4,1.7z"/>
	<path class="st0" d="M235.7,9.3c1.8-1,2.7-2.4,2.7-4.2c0-3.2-2.9-5.1-7.8-5.1h-0.4c-1.7,0-2.7,0-2.7,1.8v12.1
		c0,0.9,0.7,1.5,1.5,1.5c0.8,0,1.5-0.7,1.5-1.5v-3.3c0.3,0,0.6-0.1,0.9-0.1c1.4,0,2.9,1.4,4.5,4.1c0.3,0.5,0.8,0.8,1.3,0.8
		c1,0,1.5-0.8,1.5-1.5c0-0.3-0.1-0.5-0.2-0.7C237.8,11.4,236.6,10.1,235.7,9.3z M235.3,5.1c0,1.4-2.4,2.3-4.7,2.5V3.1
		C232.1,3.1,235.3,3.3,235.3,5.1z"/>
	<path class="st0" d="M250.6,0.1c-0.9,0-1.5,0.7-1.5,1.5V9l-5.7-8.2c-0.3-0.4-0.8-0.7-1.3-0.7c-0.8,0-1.5,0.7-1.5,1.5l0,12.2
		c0,0.8,0.7,1.5,1.5,1.5c0.9,0,1.5-0.7,1.5-1.5l0-7.3l5.6,8.2c0.3,0.4,0.8,0.7,1.3,0.7c0.9,0,1.5-0.7,1.5-1.5V1.7
		C252.1,0.8,251.4,0.1,250.6,0.1z"/>
	<path class="st0" d="M260.5,3.2c0.9,0,1.5-0.7,1.5-1.6c0-0.9-0.7-1.5-1.5-1.5h-5c-0.9,0-1.5,0.7-1.5,1.5c0,0.9,0.7,1.6,1.5,1.6h1
		v9.1h-1c-0.9,0-1.5,0.7-1.5,1.5c0,0.9,0.7,1.5,1.5,1.5h5c0.9,0,1.5-0.7,1.5-1.5c0-0.9-0.6-1.5-1.5-1.5h-0.9V3.2H260.5z"/>
	<path class="st0" d="M273.8,0.1c-0.9,0-1.5,0.7-1.5,1.5V9l-5.7-8.2c-0.3-0.4-0.8-0.7-1.3-0.7c-0.8,0-1.5,0.7-1.5,1.5l0,12.2
		c0,0.8,0.7,1.5,1.5,1.5c0.9,0,1.5-0.7,1.5-1.5l0-7.3l5.6,8.2c0.3,0.4,0.8,0.7,1.3,0.7c0.9,0,1.5-0.7,1.5-1.5V1.7
		C275.3,0.8,274.6,0.1,273.8,0.1z"/>
	<path class="st0" d="M290.5,8.1c-0.8-0.3-1.6-0.4-2.5-0.4c-1.1,0-2.5,0.1-3,0.4c-0.7,0.2-1.1,0.8-1.1,1.5c0,1,0.8,1.5,1.5,1.5
		c0.2,0,0.4,0,0.7-0.1c0.2,0,0.5-0.1,1-0.2c-0.6,1-1.7,1.5-3,1.5c-2.6,0-3.8-2.6-3.8-4.4c0-1.3,1-4.8,4.1-4.8c2,0,2.8,1.1,3.2,2.1
		c0.3,0.6,0.8,1,1.5,1c0.9,0,1.5-0.6,1.5-1.5c0-1.3-1.9-4.7-6.1-4.7c-4.3,0-7.2,4.1-7.2,7.9c0,3.7,2.6,7.5,6.9,7.5
		c3,0,5.4-1.7,6.3-4.5c0.6-0.2,1.1-0.7,1.1-1.5C291.5,8.8,291.1,8.3,290.5,8.1z"/>
</g>
</svg>
